<svg width="24" height="24" viewBox="0 0 24 24" fill="none" xmlns="http://www.w3.org/2000/svg">
<path d="M13.115 2.43314C12.8089 2.15429 12.4118 2 12 2C11.5882 2 11.191 2.15429 10.885 2.43314L2 10.5278V19.3007C2 20.0166 2.28095 20.7032 2.78105 21.2094C3.28114 21.7156 3.95942 22 4.66666 22H19.3333C20.0406 22 20.7188 21.7156 21.2189 21.2094C21.719 20.7032 22 20.0166 22 19.3007V10.5278L13.115 2.43314ZM14.5 20.3104H9.5V16.0707C9.5 15.3996 9.76339 14.7559 10.2322 14.2813C10.7011 13.8067 11.337 13.5401 12 13.5401C12.663 13.5401 13.2989 13.8067 13.7678 14.2813C14.2366 14.7559 14.5 15.3996 14.5 16.0707V20.3104ZM20.3333 19.2981C20.3333 19.5666 20.228 19.8241 20.0404 20.0139C19.8529 20.2037 19.5985 20.3104 19.3333 20.3104H16.1667V16.0707C16.1667 14.9521 15.7277 13.8793 14.9463 13.0883C14.1649 12.2974 13.1051 11.853 12 11.853C10.8949 11.853 9.83512 12.2974 9.05372 13.0883C8.27232 13.8793 7.83333 14.9521 7.83333 16.0707V20.3104H4.66666C4.40145 20.3104 4.14709 20.2037 3.95956 20.0139C3.77202 19.8241 3.66667 19.5666 3.66667 19.2981V11.2785L12 3.68665L20.3333 11.2785V19.2981Z" fill="#BB23F0"/>
</svg>
